<svg width="70" height="80" viewBox="0 0 70 80" fill="none" xmlns="http://www.w3.org/2000/svg">
<path d="M61.9088 50.5932L54.741 49.5968L51.1507 46.9408V46.2727C52.824 45.0459 54.1822 43.4533 55.1171 41.6216C56.052 39.79 56.538 37.7697 56.5362 35.7216V34.402C57.6226 34.4025 58.6838 34.0808 59.5801 33.4792C60.4765 32.8776 61.1662 32.0243 61.5585 31.0314C61.9508 30.0384 62.0274 28.9524 61.7783 27.916C61.5291 26.8796 60.9657 25.9413 60.1623 25.2246C61.1307 24.9809 61.9762 24.4015 62.5421 23.5938C63.1081 22.786 63.3561 21.8045 63.2404 20.8313C63.1246 19.858 62.6529 18.9588 61.9125 18.3002C61.1722 17.6417 60.2134 17.2684 59.2138 17.2496C59.0756 14.073 57.922 11.0193 55.9161 8.52031C53.9103 6.02137 51.1537 4.20364 48.0362 3.32416C47.625 2.36666 46.9347 1.54938 46.0517 0.974686C45.1687 0.399993 44.1324 0.0934448 43.0724 0.0934448C42.0125 0.0934448 40.9761 0.399993 40.0932 0.974686C39.2102 1.54938 38.5199 2.36666 38.1087 3.32416C34.9912 4.20364 32.2346 6.02137 30.2287 8.52031C28.2229 11.0193 27.0693 14.073 26.9311 17.2496C25.9315 17.2684 24.9727 17.6416 24.2323 18.3001C23.4919 18.9587 23.0202 19.8579 22.9044 20.8312C22.7886 21.8045 23.0366 22.7859 23.6026 23.5937C24.1685 24.4015 25.014 24.9809 25.9824 25.2246C25.1791 25.9414 24.6158 26.8796 24.3667 27.916C24.1176 28.9524 24.1942 30.0384 24.5865 31.0313C24.9788 32.0242 25.6685 32.8776 26.5649 33.4791C27.4612 34.0807 28.5223 34.4025 29.6087 34.402V35.7216C29.6068 37.7698 30.0927 39.7901 31.0276 41.6218C31.9626 43.4535 33.3208 45.0461 34.9942 46.2729V46.9408L31.789 49.3119L24.5093 49.9661C23.9572 50.0195 23.411 50.12 22.8768 50.2663V42.3196C22.8773 41.1986 22.5136 40.1067 21.8383 39.202C21.163 38.2973 20.2112 37.627 19.121 37.2881C18.0309 36.9493 16.8589 36.9596 15.7751 37.3176C14.6913 37.6755 13.752 38.3625 13.0933 39.2789C12.8032 38.9008 12.4628 38.5624 12.0812 38.2727C11.239 37.6336 10.2223 37.2536 9.15974 37.1809C8.09718 37.1081 7.03647 37.3457 6.11173 37.8638C5.18699 38.3818 4.43975 39.157 3.96451 40.0913C3.48927 41.0256 3.30737 42.077 3.44182 43.1126C3.4536 43.2043 3.46824 43.2954 3.48474 43.3858L6.57989 65.5858L6.0994 66.1014C4.37746 66.2607 2.78413 67.0634 1.64984 68.3431C0.515551 69.6229 -0.0726636 71.2814 0.00718383 72.9748C0.0870312 74.6681 0.828814 76.2664 2.0787 77.4382C3.32858 78.6099 4.99066 79.2652 6.72025 79.2681H30.105C31.0443 79.2671 31.9448 78.9009 32.609 78.25C33.2732 77.599 33.6468 76.7164 33.6478 75.7958V72.9817L34.6222 71.0718C34.8909 70.5451 35.0177 69.9598 34.9907 69.3715C34.9636 68.7833 34.7836 68.2115 34.4677 67.7106C34.1518 67.2097 33.7106 66.7963 33.1858 66.5095C32.661 66.2227 32.0702 66.0722 31.4694 66.0722H28.2623V63.433H25.5695V66.0722H22.8768V53.0492C23.4799 52.8086 24.1155 52.6552 24.7636 52.5937L30.7001 52.0601L32.3221 61.0243C32.3602 61.2349 32.45 61.4333 32.5837 61.6023C32.7174 61.7714 32.8911 61.906 33.0897 61.9947C33.2883 62.0834 33.5059 62.1234 33.7238 62.1113C33.9417 62.0992 34.1534 62.0354 34.3405 61.9254L39.9716 58.614L41.7261 61.1933V79.2681H44.4188V61.1933L46.1733 58.614L51.8044 61.9254C51.9915 62.0354 52.2032 62.0992 52.4211 62.1113C52.639 62.1234 52.8566 62.0834 53.0552 61.9947C53.2538 61.906 53.4274 61.7714 53.5612 61.6023C53.6949 61.4333 53.7847 61.2349 53.8228 61.0243L55.3918 52.3529L61.5256 53.2062C63.1259 53.4399 64.5882 54.2267 65.6485 55.4246C66.7087 56.6224 67.2971 58.1524 67.3072 59.7382V79.2681H70V59.7382C69.9867 57.5183 69.1637 55.3763 67.6799 53.6992C66.196 52.022 64.149 50.9204 61.9088 50.5932ZM12.0857 46.618L14.8036 66.0722H9.36504L9.33323 65.8413L6.75391 47.334C7.39467 47.5922 8.08068 47.7254 8.77348 47.7261C9.00446 47.7261 9.23521 47.7117 9.46434 47.683C10.42 47.5658 11.3256 47.198 12.0857 46.6185V46.618ZM20.184 76.6289H6.72025C5.64901 76.6289 4.62164 76.2118 3.86415 75.4694C3.10667 74.727 2.68112 73.7201 2.68112 72.6702C2.68112 71.6202 3.10667 70.6133 3.86415 69.8709C4.62164 69.1285 5.64901 68.7114 6.72025 68.7114H20.184V76.6289ZM20.184 66.0722H17.5214L14.8455 46.9139C15.6602 47.3666 16.5816 47.6025 17.5182 47.5981C18.4547 47.5937 19.3738 47.3491 20.184 46.8886V66.0722ZM17.4913 44.9587C16.9587 44.9587 16.4381 44.804 15.9953 44.514C15.5524 44.224 15.2073 43.8118 15.0035 43.3295C14.7997 42.8473 14.7464 42.3166 14.8503 41.8047C14.9542 41.2927 15.2106 40.8225 15.5872 40.4534C15.9638 40.0843 16.4436 39.8329 16.9659 39.7311C17.4883 39.6292 18.0297 39.6815 18.5217 39.8813C19.0138 40.081 19.4343 40.4193 19.7302 40.8533C20.0261 41.2873 20.184 41.7976 20.184 42.3196C20.1832 43.0193 19.8992 43.6901 19.3944 44.1848C18.8896 44.6796 18.2052 44.9579 17.4913 44.9587ZM31.4694 68.7114C31.6112 68.7114 31.7506 68.747 31.8745 68.8147C31.9983 68.8824 32.1025 68.98 32.177 69.0982C32.2516 69.2165 32.2941 69.3514 32.3005 69.4902C32.3069 69.6291 32.2771 69.7672 32.2137 69.8916L31.0973 72.08C31.0037 72.2632 30.955 72.4653 30.955 72.6702V75.7958C30.9548 76.0167 30.8651 76.2284 30.7058 76.3846C30.5464 76.5408 30.3304 76.6287 30.105 76.6289H22.8768V68.7114H31.4694ZM56.5362 31.7628V26.4845C57.2504 26.4845 57.9353 26.7625 58.4403 27.2575C58.9453 27.7524 59.229 28.4237 59.229 29.1236C59.229 29.8236 58.9453 30.4949 58.4403 30.9898C57.9353 31.4848 57.2504 31.7628 56.5362 31.7628ZM40.3797 5.37101C40.3797 4.67105 40.6634 3.99977 41.1684 3.50482C41.6734 3.00988 42.3583 2.73182 43.0724 2.73182C43.7866 2.73182 44.4715 3.00988 44.9765 3.50482C45.4815 3.99977 45.7652 4.67105 45.7652 5.37101V11.969H40.3797V5.37101ZM32.3014 10.1986V14.6081H34.9942V7.68161C35.8301 7.10035 36.7342 6.61945 37.6869 6.24919V13.2886C37.6869 13.6385 37.8288 13.9742 38.0813 14.2216C38.3338 14.4691 38.6762 14.6081 39.0333 14.6081H47.1116C47.4687 14.6081 47.8111 14.4691 48.0636 14.2216C48.3161 13.9742 48.458 13.6385 48.458 13.2886V6.24919C49.4108 6.61947 50.3148 7.10044 51.1507 7.68178V14.6081H53.8435V10.1984C55.4573 12.2205 56.3921 14.6831 56.5194 17.2473H29.6255C29.7528 14.6832 30.6877 12.2207 32.3014 10.1986ZM25.5695 21.2996C25.5702 20.9249 25.7223 20.5658 25.9927 20.3009C26.2631 20.036 26.6296 19.887 27.0118 19.8865H59.133C59.5066 19.8866 59.8656 20.0288 60.1344 20.2831C60.4032 20.5374 60.5608 20.8839 60.5741 21.2499C60.5875 21.6158 60.4554 21.9725 60.2058 22.2449C59.9562 22.5173 59.6085 22.6842 59.2359 22.7104L43.0724 23.8418L26.909 22.7104C26.5456 22.6838 26.2059 22.5238 25.9576 22.2624C25.7092 22.001 25.5707 21.6574 25.5695 21.3003V21.2996ZM29.6087 31.7628C28.8945 31.7628 28.2096 31.4848 27.7046 30.9898C27.1996 30.4949 26.9159 29.8236 26.9159 29.1236C26.9159 28.4237 27.1996 27.7524 27.7046 27.2575C28.2096 26.7625 28.8945 26.4845 29.6087 26.4845V31.7628ZM32.3014 35.7216V25.7338L42.9765 26.481C43.0085 26.4833 43.0405 26.4845 43.0724 26.4845C43.1044 26.4845 43.1364 26.4833 43.1684 26.481L53.8435 25.7338V35.7216C53.8455 38.2922 52.8877 40.7747 51.1507 42.7008V38.3608C51.1491 36.9614 50.5812 35.6197 49.5716 34.6301C48.5619 33.6406 47.193 33.084 45.7652 33.0824H40.3797C38.9519 33.084 37.583 33.6406 36.5733 34.6301C35.5637 35.6197 34.9958 36.9614 34.9942 38.3608V42.7012C33.2571 40.775 32.2993 38.2924 32.3014 35.7216ZM48.458 38.3608V44.8598C46.8214 45.7888 44.9637 46.2781 43.0724 46.2781C41.1812 46.2781 39.3235 45.7888 37.6869 44.8598V38.3608C37.6878 37.6611 37.9718 36.9903 38.4766 36.4955C38.9814 36.0008 39.6658 35.7224 40.3797 35.7216H45.7652C46.4791 35.7224 47.1635 36.0008 47.6683 36.4955C48.1731 36.9903 48.4571 37.6611 48.458 38.3608ZM34.632 58.6762L33.3296 51.4787L35.78 49.6659L38.6792 56.2968L34.632 58.6762ZM44.5762 56.2043L43.0724 58.4149L41.5687 56.2046L37.9476 47.9229C41.2302 49.2487 44.9144 49.2487 48.1969 47.9229L44.5762 56.2043ZM51.5129 58.6762L47.465 56.2962L50.3643 49.6652L52.8147 51.478L51.5129 58.6762ZM8.79586 45.1237C8.26328 45.1237 7.74267 44.9689 7.29985 44.6789C6.85703 44.3889 6.51189 43.9767 6.30808 43.4945C6.10427 43.0122 6.05095 42.4816 6.15485 41.9696C6.25875 41.4577 6.51521 40.9874 6.8918 40.6183C7.26838 40.2492 7.74819 39.9979 8.27053 39.896C8.79287 39.7942 9.3343 39.8465 9.82633 40.0462C10.3184 40.246 10.7389 40.5842 11.0348 41.0183C11.3307 41.4523 11.4886 41.9625 11.4886 42.4845C11.4878 43.1842 11.2038 43.855 10.699 44.3498C10.1942 44.8445 9.50976 45.1229 8.79586 45.1237Z" fill="#72758E"/>
<path d="M57.8825 71.3507H47.1115V73.9898H57.8825V79.2682H60.5752V63.4331H57.8825V71.3507Z" fill="#72758E"/>
<path d="M37.0136 30.443C38.129 30.443 39.0332 29.5568 39.0332 28.4636C39.0332 27.3704 38.129 26.4842 37.0136 26.4842C35.8983 26.4842 34.9941 27.3704 34.9941 28.4636C34.9941 29.5568 35.8983 30.443 37.0136 30.443Z" fill="#72758E"/>
<path d="M49.131 30.443C50.2464 30.443 51.1506 29.5568 51.1506 28.4636C51.1506 27.3704 50.2464 26.4842 49.131 26.4842C48.0156 26.4842 47.1115 27.3704 47.1115 28.4636C47.1115 29.5568 48.0156 30.443 49.131 30.443Z" fill="#72758E"/>
<path d="M36.3405 64.7525H39.0332V67.3917H36.3405V64.7525Z" fill="#72758E"/>
<path d="M36.3405 76.6291H39.0332V79.2682H36.3405V76.6291Z" fill="#72758E"/>
<path d="M42.2795 38.3605H40.3796V40.9997H42.2795C43.6843 40.9969 45.0709 40.6877 46.3386 40.0946L45.1915 37.7068C44.2824 38.1338 43.2876 38.3571 42.2795 38.3605Z" fill="#72758E"/>
</svg>
