<svg width="70" height="83" viewBox="0 0 70 83" fill="none" xmlns="http://www.w3.org/2000/svg">
<path d="M58.7741 24.7286H35.0001C34.0883 24.7286 33.3492 25.453 33.3492 26.3467C33.3492 27.2404 34.0883 27.9648 35.0001 27.9648H58.7741C59.6859 27.9648 60.425 27.2404 60.425 26.3467C60.425 25.453 59.6859 24.7286 58.7741 24.7286Z" fill="#72758E"/>
<path d="M52.9972 32.9695C52.6902 32.6685 52.2642 32.4954 51.83 32.4954C51.3958 32.4954 50.9699 32.6685 50.6628 32.9695C50.3557 33.2704 50.1791 33.6879 50.1791 34.1135C50.1791 34.539 50.3557 34.9565 50.6628 35.2575C50.9699 35.5584 51.3958 35.7316 51.83 35.7316C52.2642 35.7316 52.6902 35.5584 52.9972 35.2575C53.3043 34.9565 53.481 34.539 53.481 34.1135C53.481 33.6879 53.3043 33.2704 52.9972 32.9695Z" fill="#72758E"/>
<path d="M36.1656 7.56523C35.8586 7.26426 35.4326 7.09113 34.9984 7.09113C34.5642 7.09113 34.1383 7.26426 33.8312 7.56523C33.5241 7.8662 33.3475 8.28367 33.3475 8.70923C33.3475 9.13479 33.5241 9.55226 33.8312 9.85322C34.1383 10.1542 34.5642 10.3273 34.9984 10.3273C35.4326 10.3273 35.8586 10.1542 36.1656 9.85322C36.4727 9.55226 36.6494 9.13479 36.6494 8.70923C36.6494 8.28367 36.4727 7.8662 36.1656 7.56523Z" fill="#72758E"/>
<path d="M44.8855 32.4954H35.0001C34.0883 32.4954 33.3492 33.2198 33.3492 34.1135C33.3492 35.0071 34.0883 35.7316 35.0001 35.7316H44.8855C45.7973 35.7316 46.5364 35.0071 46.5364 34.1135C46.5364 33.2198 45.7973 32.4954 44.8855 32.4954Z" fill="#72758E"/>
<path d="M58.7741 42.2039H35.0001C34.0883 42.2039 33.3492 42.9283 33.3492 43.822C33.3492 44.7157 34.0883 45.4401 35.0001 45.4401H58.7741C59.6859 45.4401 60.425 44.7157 60.425 43.822C60.425 42.9283 59.6859 42.2039 58.7741 42.2039Z" fill="#72758E"/>
<path d="M52.9972 50.4451C52.6902 50.1441 52.2642 49.971 51.83 49.971C51.3958 49.971 50.9699 50.1441 50.6628 50.4451C50.3557 50.746 50.1791 51.1635 50.1791 51.5891C50.1791 52.0146 50.3557 52.4321 50.6628 52.7331C50.9699 53.034 51.3958 53.2072 51.83 53.2072C52.2642 53.2072 52.6902 53.034 52.9972 52.7331C53.3043 52.4321 53.481 52.0146 53.481 51.5891C53.481 51.1635 53.3043 50.746 52.9972 50.4451Z" fill="#72758E"/>
<path d="M44.8855 49.971H35.0001C34.0883 49.971 33.3492 50.6954 33.3492 51.5891C33.3492 52.4828 34.0883 53.2072 35.0001 53.2072H44.8855C45.7973 53.2072 46.5364 52.4828 46.5364 51.5891C46.5364 50.6954 45.7973 49.971 44.8855 49.971Z" fill="#72758E"/>
<path d="M58.7741 59.6794H35.0001C34.0883 59.6794 33.3492 60.4039 33.3492 61.2975C33.3492 62.1912 34.0883 62.9156 35.0001 62.9156H58.7741C59.6859 62.9156 60.425 62.1912 60.425 61.2975C60.425 60.4039 59.6859 59.6794 58.7741 59.6794Z" fill="#72758E"/>
<path d="M52.9972 67.9204C52.6902 67.6194 52.2642 67.4463 51.83 67.4463C51.3958 67.4463 50.9699 67.6194 50.6628 67.9204C50.3557 68.2214 50.1791 68.6388 50.1791 69.0644C50.1791 69.4899 50.3557 69.9074 50.6628 70.2084C50.9699 70.5094 51.3958 70.6825 51.83 70.6825C52.2642 70.6825 52.6902 70.5094 52.9972 70.2084C53.3043 69.9074 53.481 69.4899 53.481 69.0644C53.481 68.6388 53.3043 68.2214 52.9972 67.9204Z" fill="#72758E"/>
<path d="M44.8855 67.4463H35.0001C34.0883 67.4463 33.3492 68.1707 33.3492 69.0644C33.3492 69.9581 34.0883 70.6825 35.0001 70.6825H44.8855C45.7973 70.6825 46.5364 69.9581 46.5364 69.0644C46.5364 68.1707 45.7973 67.4463 44.8855 67.4463Z" fill="#72758E"/>
<path d="M61.9505 6.44412H49.3407C47.5179 4.74171 45.0539 3.69318 42.3432 3.69318H40.8969C39.7913 1.54791 37.5198 0.133362 34.9999 0.133362C32.4801 0.133362 30.2087 1.54791 29.1029 3.69318H27.6532C24.9425 3.69318 22.4786 4.74171 20.6558 6.44412H8.04969C3.61112 6.44412 0 9.98339 0 14.3337V75.0908C0 79.441 3.61112 82.9803 8.04969 82.9803H61.9503C66.3889 82.9803 70 79.441 70 75.0908V14.3337C70.0002 9.98339 66.3891 6.44412 61.9505 6.44412ZM27.6534 6.92939H30.2265C30.9691 6.92939 31.6203 6.44347 31.8179 5.74202C32.2116 4.34512 33.5202 3.36956 35.0001 3.36956C36.48 3.36956 37.7885 4.34512 38.1821 5.74202C38.3797 6.44347 39.031 6.92939 39.7735 6.92939H42.3432C45.9265 6.92939 48.8761 9.6397 49.1705 13.0783H20.826C21.1204 9.6397 24.0702 6.92939 27.6534 6.92939ZM66.6983 75.0909C66.6983 77.6567 64.5684 79.7442 61.9505 79.7442H8.04969C5.43178 79.7442 3.30189 77.6567 3.30189 75.0909V14.3337C3.30189 11.7678 5.43178 9.68032 8.04969 9.68032H18.3429C17.802 10.8958 17.5 12.2359 17.5 13.6447V14.6964C17.5 15.5901 18.2392 16.3145 19.151 16.3145H50.8457C51.7575 16.3145 52.4967 15.5901 52.4967 14.6964V13.6447C52.4967 12.2361 52.1947 10.8958 51.6538 9.68032H61.9505C64.5684 9.68032 66.6983 11.7678 66.6983 14.3337V75.0909Z" fill="#72758E"/>
<path d="M24.5016 24.339C23.8569 23.7071 22.8115 23.7071 22.1668 24.3388L15.107 31.2583L12.9322 29.1266C12.2875 28.4949 11.2422 28.4949 10.5973 29.1266C9.9526 29.7585 9.9526 30.7831 10.5973 31.4151L13.9396 34.691C14.2621 35.007 14.6845 35.1649 15.107 35.1649C15.5295 35.1649 15.9521 35.007 16.2744 34.691L24.5016 26.6275C25.1463 25.9956 25.1463 24.971 24.5016 24.339Z" fill="#72758E"/>
<path d="M20.4718 59.6794H12.5473C11.6354 59.6794 10.8963 60.4039 10.8963 61.2975V69.0644C10.8963 69.9581 11.6354 70.6825 12.5473 70.6825H20.4718C21.3836 70.6825 22.1228 69.9581 22.1228 69.0644V61.2975C22.1228 60.4039 21.3836 59.6794 20.4718 59.6794ZM18.8209 67.4463H14.1982V62.9156H18.8209V67.4463Z" fill="#72758E"/>
<path d="M20.4718 42.2039H12.5473C11.6354 42.2039 10.8963 42.9283 10.8963 43.822V51.5889C10.8963 52.4826 11.6354 53.207 12.5473 53.207H20.4718C21.3836 53.207 22.1228 52.4826 22.1228 51.5889V43.822C22.1228 42.9283 21.3836 42.2039 20.4718 42.2039ZM18.8209 49.9708H14.1982V45.4401H18.8209V49.9708Z" fill="#72758E"/>
</svg>
