<svg width="35" height="25" viewBox="0 0 35 25" fill="none" xmlns="http://www.w3.org/2000/svg">
<path d="M10.6562 5.84082C6.01685 5.84082 2.24341 9.61481 2.24341 14.2536C2.24341 18.8924 6.01685 22.6664 10.6562 22.6664C15.295 22.6664 19.069 18.8924 19.069 14.2536C19.069 9.61481 15.295 5.84082 10.6562 5.84082ZM10.6562 17.6187C8.79757 17.6187 7.2911 16.1117 7.2911 14.2536C7.2911 12.3955 8.79757 10.8885 10.6562 10.8885C12.5143 10.8885 14.0213 12.3955 14.0213 14.2536C14.0213 16.1117 12.5143 17.6187 10.6562 17.6187Z" fill="#2AADF1"/>
<path d="M10.6562 10.3276C8.49193 10.3276 6.73022 12.0891 6.73022 14.2536C6.73022 16.4179 8.49193 18.1796 10.6562 18.1796C12.8205 18.1796 14.5822 16.4179 14.5822 14.2536C14.5822 12.0891 12.8205 10.3276 10.6562 10.3276ZM10.6562 17.0579C9.11002 17.0579 7.85193 15.7998 7.85193 14.2536C7.85193 12.7072 9.11002 11.4493 10.6562 11.4493C12.2024 11.4493 13.4605 12.7072 13.4605 14.2536C13.4605 15.7998 12.2024 17.0579 10.6562 17.0579Z" fill="black"/>
<path d="M25.7213 14.2484L35 4.71386L30.2861 0L20.8795 9.40663L18.1913 6.71847C16.1785 4.70592 13.5027 3.59735 10.6562 3.59735C7.80979 3.59735 5.13395 4.70592 3.12112 6.71847C1.10829 8.73076 0 11.4071 0 14.2536C0 17.0997 1.10884 19.7756 3.12112 21.7884C5.13341 23.8015 7.80979 24.9098 10.6562 24.9098C13.5027 24.9098 16.1785 23.801 18.1913 21.7884L25.3354 14.6449L25.3365 14.6438L25.7265 14.2536L25.7213 14.2484ZM30.2861 1.58589L33.4248 4.72454L33.2627 4.89104L33.2547 4.88337L32.9458 5.19228C32.5274 5.61018 31.9714 5.84077 31.3794 5.84077C30.1577 5.84077 29.1644 4.8475 29.1644 3.62583C29.1644 3.03349 29.395 2.47784 29.8126 2.05939L30.1218 1.75048L30.2861 1.58589ZM22.7146 9.15742L23.7202 10.1633L24.5133 9.37021L23.5077 8.36461L24.958 6.914L25.9636 7.91987L26.7567 7.12679L25.7511 6.1212L28.0523 3.82C28.1509 5.52721 29.5363 6.891 31.2526 6.95618L24.9276 13.4547L21.6726 10.1997L22.7146 9.15742ZM17.3983 20.9956C15.5974 22.7959 13.2031 23.7881 10.6562 23.7881C8.10939 23.7881 5.71507 22.7959 3.91421 20.9956C2.11334 19.1953 1.12171 16.8004 1.12171 14.2536C1.12171 11.7067 2.11388 9.31242 3.91421 7.51156C5.71453 5.71041 8.10939 4.71906 10.6562 4.71906C13.2031 4.71906 15.5974 5.71124 17.3983 7.51156L24.1403 14.2536L17.3983 20.9956Z" fill="black"/>
</svg>
