<svg width="144" height="51" viewBox="0 0 144 51" fill="none" xmlns="http://www.w3.org/2000/svg">
<g clip-path="url(#clip0_2_377)">
<path d="M41.3578 28.7197C41.0887 28.7232 40.8251 28.6444 40.6026 28.4941C40.3801 28.3437 40.2095 28.1291 40.1141 27.8793C40.0186 27.6295 40.0028 27.3566 40.0688 27.0976C40.1348 26.8386 40.2794 26.606 40.4831 26.4313L71.0509 0.303867C71.2898 0.0973808 71.5958 -0.0163574 71.9125 -0.0163574C72.2293 -0.0163574 72.5353 0.0973808 72.7742 0.303867L79.6759 6.38305V1.30693C79.6759 0.961438 79.8141 0.630101 80.0602 0.385801C80.3063 0.141501 80.64 0.00424876 80.988 0.00424876H89.0094C89.3574 0.00424876 89.6911 0.141501 89.9372 0.385801C90.1832 0.630101 90.3215 0.961438 90.3215 1.30693V15.237L103.084 26.44C103.213 26.5541 103.319 26.6923 103.394 26.8467C103.469 27.0012 103.513 27.1689 103.524 27.3403C103.534 27.5116 103.51 27.6833 103.453 27.8455C103.396 28.0077 103.308 28.1572 103.193 28.2855C103.078 28.4138 102.939 28.5184 102.784 28.5933C102.628 28.6682 102.459 28.7119 102.287 28.722C102.114 28.732 101.941 28.7083 101.778 28.652C101.614 28.5957 101.464 28.5081 101.334 28.394L88.139 16.8045C88.0006 16.6816 87.8901 16.531 87.8147 16.3626C87.7393 16.1942 87.7008 16.0118 87.7016 15.8275V2.60961H82.3001V9.26633C82.3013 9.51831 82.2288 9.76523 82.0915 9.97715C81.9542 10.1891 81.7579 10.3569 81.5264 10.4603C81.295 10.5637 81.0383 10.5983 80.7875 10.5598C80.5366 10.5212 80.3024 10.4113 80.1132 10.2433L71.8907 3.03516L42.2151 28.4027C41.9769 28.607 41.6726 28.7196 41.3578 28.7197Z" fill="white"/>
<path d="M0.708541 42.3199C1.00379 41.9576 1.37803 41.6665 1.80306 41.4687C2.22809 41.2709 2.69282 41.1714 3.16219 41.1779C3.8614 41.1525 4.54485 41.3879 5.07788 41.8379C5.36573 42.1017 5.5827 42.4326 5.70911 42.8007C5.83552 43.1688 5.86738 43.5624 5.80178 43.9458C5.73619 44.3292 5.57522 44.6903 5.33348 44.9963C5.09174 45.3023 4.77687 45.5436 4.41744 45.6982C4.97425 45.824 5.46766 46.1427 5.80913 46.5971C6.1506 47.0515 6.31777 47.6119 6.28065 48.1776C6.29716 48.5583 6.23156 48.9381 6.08824 49.2916C5.94493 49.645 5.7272 49.964 5.44964 50.2272C4.81965 50.7717 4.00052 51.0505 3.16656 51.0045C2.55539 51.0124 1.9526 50.8627 1.41708 50.5702C0.834422 50.2071 0.351944 49.7057 0.0131226 49.1112L0.743531 48.677C1.04087 49.1788 1.46047 49.5984 1.96379 49.8972C2.33418 50.0771 2.74108 50.1707 3.15344 50.1707C3.70677 50.1852 4.24692 50.0018 4.6755 49.654C4.89099 49.4667 5.05995 49.2324 5.1692 48.9695C5.27845 48.7066 5.32503 48.4223 5.30531 48.1386C5.31379 47.82 5.24002 47.5046 5.091 47.2223C4.94798 46.9616 4.73829 46.743 4.48305 46.5884C4.2567 46.4415 4.00443 46.3383 3.73952 46.2844C3.35561 46.2313 2.96798 46.2095 2.58049 46.2193H2.42303V45.3986H2.73357C4.13316 45.3986 4.83295 44.8384 4.83295 43.7181C4.84667 43.4933 4.81261 43.2681 4.73298 43.0571C4.65335 42.8462 4.52992 42.6542 4.37072 42.4937C4.21152 42.3332 4.0201 42.2077 3.80888 42.1254C3.59766 42.0431 3.37137 42.0058 3.1447 42.0159C2.8035 42.03 2.46899 42.1145 2.1625 42.264C1.85601 42.4135 1.58427 42.6248 1.3646 42.8844L0.708541 42.3199Z" fill="white"/>
<path d="M11.9883 41.4124L16.3839 50.7699H15.3648L13.8821 47.6913H9.82333L8.35376 50.7699H7.30408L11.7565 41.4124H11.9883ZM11.8659 43.4011L10.252 46.7881H13.4754L11.8659 43.4011Z" fill="white"/>
<path d="M17.836 50.7699V41.4124H22.5771V42.3286H18.7807V45.3247H19.2181C20.0824 45.2816 20.9478 45.3859 21.7767 45.633C22.2858 45.8216 22.7241 46.1612 23.032 46.6057C23.3275 47.0413 23.4802 47.557 23.4693 48.0821C23.4691 48.4335 23.3974 48.7812 23.2583 49.1043C23.1193 49.4274 22.9158 49.7192 22.6602 49.9623C22.3605 50.2416 22.0066 50.4573 21.62 50.5962C21.2335 50.7351 20.8225 50.7942 20.4121 50.7699H17.836ZM18.7632 46.2627V49.8537H19.9266C20.4376 49.8782 20.9489 49.8105 21.4356 49.654C21.7475 49.5277 22.0141 49.3114 22.201 49.033C22.4079 48.7281 22.5084 48.3642 22.4871 47.9972C22.4658 47.6301 22.3238 47.2801 22.0829 47.0009C21.8189 46.7025 21.4669 46.4943 21.0769 46.406C20.4891 46.2939 19.8907 46.2459 19.2924 46.2627H18.7632Z" fill="white"/>
<path d="M29.8462 41.1778C30.5088 41.1601 31.168 41.2765 31.7838 41.5199C32.3997 41.7633 32.9591 42.1285 33.4283 42.5934C34.1253 43.2804 34.6009 44.1577 34.7947 45.1137C34.9886 46.0697 34.8919 47.0613 34.5169 47.9626C34.142 48.8639 33.5057 49.6343 32.6889 50.1759C31.872 50.7174 30.9115 51.0058 29.9293 51.0043C29.2731 51.0174 28.621 50.8979 28.0128 50.6531C27.4045 50.4082 26.8527 50.0432 26.391 49.5801C25.926 49.1339 25.5583 48.5977 25.3108 48.0046C25.0633 47.4115 24.9412 46.7742 24.952 46.1323C24.946 45.2559 25.1723 44.3933 25.6081 43.6311C26.0293 42.881 26.6475 42.2582 27.3969 41.8291C28.1405 41.3996 28.986 41.1748 29.8462 41.1778ZM29.8856 42.0853C29.1866 42.0931 28.5017 42.2814 27.8981 42.6316C27.2946 42.9818 26.7933 43.4819 26.4435 44.0827C26.0871 44.7057 25.9044 45.4116 25.9142 46.128C25.9066 46.6488 26.004 47.166 26.2006 47.6489C26.3972 48.1319 26.6891 48.571 27.0591 48.9404C27.4291 49.3097 27.8698 49.6019 28.3552 49.7998C28.8405 49.9976 29.3609 50.0971 29.8856 50.0925C30.5983 50.0982 31.2999 49.917 31.9193 49.567C32.5281 49.2254 33.0316 48.7255 33.3758 48.1211C33.7268 47.4995 33.9064 46.797 33.8963 46.0845C33.9076 45.3788 33.7278 44.683 33.3758 44.0697C33.0248 43.4657 32.5154 42.9675 31.9019 42.6281C31.2903 42.2725 30.5943 42.0852 29.8856 42.0853Z" fill="white"/>
<path d="M35.8251 42.3286V41.4124H40.9904V42.3286H38.891V50.7699H37.9288V42.3286H35.8251Z" fill="white"/>
<path d="M49.9784 50.7699H48.9549L45.8321 43.5401L42.6568 50.7699H41.629L45.7315 41.4124H45.9371L49.9784 50.7699Z" fill="white"/>
<path d="M58.9751 50.7699H58.0041V43.5922L51.7891 50.7699H51.5748V41.4124H52.5195V48.7074L58.7695 41.4124H58.9838L58.9751 50.7699Z" fill="white"/>
<path d="M61.2932 41.4123H63.152C63.7385 41.3848 64.3245 41.4749 64.8752 41.6772C65.2678 41.843 65.5992 42.1251 65.8243 42.4848C66.058 42.8475 66.1796 43.2702 66.1742 43.7007C66.1797 44.1006 66.0737 44.4943 65.8681 44.8383C65.6513 45.191 65.3411 45.4779 64.9714 45.6677C65.3805 45.7909 65.7631 45.9882 66.0999 46.2496C66.3648 46.4686 66.5757 46.7449 66.7166 47.0572C66.8665 47.3782 66.9426 47.7282 66.9396 48.082C66.945 48.4401 66.8738 48.7952 66.7305 49.1238C66.5872 49.4525 66.3753 49.7471 66.1086 49.9883C65.4992 50.5297 64.6992 50.8105 63.8824 50.7699H61.2932V41.4123ZM62.216 42.3285V45.3247H62.754C63.2435 45.348 63.7335 45.2863 64.2017 45.1423C64.4979 45.0289 64.7526 44.8291 64.9321 44.5691C65.1101 44.3141 65.2048 44.0109 65.2032 43.7007C65.2136 43.5106 65.1795 43.3208 65.1036 43.146C65.0277 42.9712 64.9121 42.8163 64.7659 42.6932C64.3407 42.4155 63.8342 42.2871 63.3269 42.3285H62.216ZM62.216 46.2626V49.8537H63.3838C63.8962 49.8784 64.409 49.8107 64.8971 49.6539C65.2132 49.5263 65.483 49.3068 65.6712 49.0243C65.8808 48.7243 65.983 48.3633 65.9616 47.9988C65.9402 47.6344 65.7964 47.2876 65.5532 47.0138C65.2544 46.6889 64.8591 46.4668 64.4247 46.3798C63.872 46.2828 63.3106 46.2435 62.7496 46.2626H62.216Z" fill="white"/>
<path d="M68.7941 41.4124H69.7388V45.4246H70.4167C71.3054 45.3991 72.1944 45.4587 73.0716 45.6026C73.5946 45.7068 74.0612 45.9971 74.3837 46.419C74.7292 46.8989 74.9031 47.4797 74.8779 48.0691C74.9004 48.6548 74.7317 49.2321 74.3968 49.7148C74.1049 50.139 73.671 50.4467 73.1721 50.5832C72.3537 50.7493 71.5183 50.8178 70.6835 50.7873H68.8072L68.7941 41.4124ZM69.7388 49.8668H70.7404C71.4336 49.8987 72.1282 49.8476 72.8091 49.7148C73.1223 49.6225 73.394 49.4263 73.5789 49.159C73.7782 48.8484 73.8774 48.4848 73.8632 48.1168C73.8826 47.7075 73.7555 47.3045 73.5045 46.9791C73.2804 46.6923 72.9555 46.5001 72.5948 46.4407C71.9101 46.357 71.2201 46.3236 70.5304 46.3408H69.7388V49.8668ZM75.9713 41.4124H76.9117V50.7699H75.9713V41.4124Z" fill="white"/>
<path d="M86.6213 50.7698H85.6416V43.5921L79.4353 50.7698H79.221V41.4122H80.1657V48.7073L86.4158 41.4122H86.6301L86.6213 50.7698ZM80.6468 39.1716H81.4953C81.6353 39.3904 81.8379 39.5628 82.077 39.6666C82.3526 39.7862 82.6512 39.844 82.9518 39.836C83.2348 39.8456 83.5165 39.7953 83.7784 39.6884C84.0156 39.5661 84.2197 39.3889 84.3732 39.1716H85.1955C85.0885 39.5719 84.83 39.9157 84.4738 40.1313C84.0145 40.4062 83.4831 40.5392 82.9474 40.5134C82.4084 40.5365 81.874 40.4053 81.4079 40.1356C81.0393 39.9228 80.7669 39.5778 80.6468 39.1716Z" fill="white"/>
<path d="M92.5564 41.4123H94.4328C95.1645 41.3862 95.8971 41.4328 96.6196 41.5512C97.1347 41.6721 97.5956 41.9573 97.9317 42.3632C98.2827 42.7997 98.4643 43.3467 98.4434 43.9048C98.4661 44.461 98.2894 45.0071 97.9448 45.4463C97.5918 45.8653 97.1062 46.1531 96.5671 46.2626C95.7755 46.3948 94.9725 46.4472 94.1703 46.4189H93.4968V50.7612H92.5564V41.4123ZM93.4968 42.3285V45.5027H95.0932C95.5721 45.5266 96.0516 45.4678 96.5103 45.329C96.7994 45.2199 97.046 45.0222 97.2144 44.7645C97.3846 44.5065 97.4744 44.2045 97.4725 43.8961C97.4757 43.5875 97.3858 43.285 97.2144 43.0276C97.0556 42.7756 96.8195 42.5808 96.5409 42.4718C96.0948 42.3377 95.6286 42.2819 95.1632 42.3068L93.4968 42.3285Z" fill="white"/>
<path d="M100.315 41.4124H105.717V42.3286H101.26V45.2596H105.678V46.1758H101.26V49.8537H105.678V50.7699H100.315V41.4124Z" fill="white"/>
<path d="M106.915 50.7699L108.267 41.4124H108.42L112.238 49.0895L116.03 41.4124H116.183L117.539 50.7699H116.612L115.68 44.0785L112.347 50.7699H112.107L108.739 44.0264L107.812 50.7699H106.915Z" fill="white"/>
<path d="M123.89 41.1779C124.553 41.1597 125.213 41.2758 125.83 41.5191C126.446 41.7625 127.006 42.1281 127.476 42.5935C128.171 43.2814 128.645 44.1584 128.837 45.1137C129.03 46.069 128.933 47.0596 128.558 47.96C128.184 48.8605 127.548 49.6304 126.733 50.1723C125.917 50.7142 124.958 51.0038 123.977 51.0044C123.321 51.0181 122.669 50.8988 122.06 50.6539C121.452 50.409 120.9 50.0437 120.439 49.5802C119.973 49.1342 119.605 48.5981 119.357 48.005C119.108 47.412 118.985 46.7746 118.996 46.1324C118.99 45.256 119.216 44.3935 119.652 43.6313C120.073 42.88 120.693 42.257 121.445 41.8292C122.187 41.3993 123.031 41.1744 123.89 41.1779ZM123.933 42.0854C123.236 42.0856 122.551 42.2731 121.952 42.6282C121.342 42.9745 120.836 43.4768 120.487 44.0829C120.134 44.707 119.953 45.4124 119.962 46.1281C119.954 46.6489 120.052 47.1661 120.248 47.6491C120.445 48.132 120.737 48.5711 121.107 48.9405C121.477 49.3099 121.918 49.602 122.403 49.7999C122.888 49.9977 123.409 50.0973 123.933 50.0926C124.645 50.0984 125.345 49.9171 125.963 49.5672C126.574 49.228 127.078 48.7275 127.419 48.1212C127.772 47.5 127.953 46.7975 127.944 46.0846C127.954 45.3785 127.773 44.6827 127.419 44.0698C127.07 43.4661 126.562 42.9679 125.95 42.6282C125.338 42.2732 124.642 42.0859 123.933 42.0854Z" fill="white"/>
<path d="M130.796 41.4124H131.736V45.3204H136.547V41.4124H137.492V50.7699H136.547V46.254H131.736V50.7699H130.796V41.4124Z" fill="white"/>
<path d="M138.835 42.3286V41.4124H144V42.3286H141.896V50.7699H140.938V42.3286H138.835Z" fill="white"/>
</g>
<defs>
<clipPath id="clip0_2_377">
<rect width="144" height="51" fill="white"/>
</clipPath>
</defs>
</svg>
