<svg width="30" height="30" viewBox="0 0 30 30" fill="none" xmlns="http://www.w3.org/2000/svg">
<path d="M0.674927 20.7298L20.7294 0.675293L22.4998 2.44561L2.44525 22.5001L0.674927 20.7298Z" fill="#2AADF1"/>
<path d="M9.2701 30.0001L0 20.73L20.73 0L30.0001 9.2701L26.32 12.9502L25.6448 12.275L28.6496 9.2701L20.73 1.35041L1.35041 20.73L9.2701 28.6496L12.275 25.6448L12.9502 26.32L9.2701 30.0001Z" fill="black"/>
<path d="M26.5997 12.5548L22.5 8.45508L18.9598 11.9952L21.4872 14.5226C21.6147 14.6501 21.6849 14.8196 21.6849 15.0001C21.6849 15.1806 21.6147 15.3501 21.4872 15.4776L15.4775 21.4868C15.2238 21.7407 14.775 21.7403 14.5225 21.4868L11.9951 18.9595L10.056 20.8986L8.45496 22.5001L12.5547 26.5999C13.0728 27.1179 13.7899 27.415 14.5225 27.415C15.2551 27.415 15.9722 27.1179 16.4903 26.5999L26.5997 16.4904C27.1255 15.9651 27.4148 15.2661 27.4148 14.5226C27.4148 13.7791 27.1255 13.0801 26.5997 12.5548Z" fill="#2AADF1"/>
<path d="M18.0046 12.2749L22.7796 7.5L23.4548 8.17544L18.6798 12.9501L18.0046 12.2749Z" fill="black"/>
<path d="M7.49976 22.7796L12.2747 18.0049L12.9499 18.6801L8.17496 23.455L7.49976 22.7796Z" fill="black"/>
</svg>
