<svg width="70" height="79" viewBox="0 0 70 79" fill="none" xmlns="http://www.w3.org/2000/svg">
<path d="M35.9223 43.1425C35.7753 43.1113 35.6244 43.1057 35.4755 43.1275C33.9833 42.9573 32.8576 41.7198 32.855 40.2479C32.855 39.5425 32.2715 38.9706 31.5517 38.9706C30.832 38.9706 30.2485 39.5425 30.2485 40.2479C30.2523 42.7059 31.9297 44.8589 34.3479 45.5094V46.7868C34.3479 47.4922 34.9314 48.0641 35.6512 48.0641C36.3709 48.0641 36.9544 47.4922 36.9544 46.7868V45.5868C39.7455 45.0142 41.6425 42.4664 41.3491 39.6866C41.0551 36.9068 38.6656 34.7943 35.8141 34.7937C34.1799 34.7937 32.855 33.4951 32.855 31.8935C32.855 30.2918 34.1799 28.9933 35.8141 28.9933C37.4482 28.9933 38.7731 30.2918 38.7731 31.8935C38.7731 32.5989 39.3567 33.1708 40.0764 33.1708C40.7961 33.1708 41.3797 32.5989 41.3797 31.8935C41.3758 29.3126 39.531 27.0866 36.9544 26.554V25.3914C36.9544 24.686 36.3709 24.1141 35.6512 24.1141C34.9314 24.1141 34.3479 24.686 34.3479 25.3914V26.6319C31.6587 27.3517 29.9278 29.9107 30.2981 32.6188C30.6685 35.3269 33.0262 37.3483 35.8141 37.3477C37.4266 37.3477 38.742 38.6132 38.7712 40.193C38.8011 41.7728 37.5335 43.0851 35.9223 43.1425Z" fill="#72758E"/>
<path d="M16.9155 36.1688C16.9155 46.3987 25.3765 54.6914 35.8141 54.6914C46.2516 54.6914 54.7126 46.3987 54.7126 36.1688C54.7126 25.9389 46.2516 17.6462 35.8141 17.6462C25.3816 17.6575 16.9276 25.9439 16.9155 36.1688ZM35.8141 20.2009C44.8122 20.2009 52.1061 27.3497 52.1061 36.1688C52.1061 44.9879 44.8122 52.1367 35.8141 52.1367C26.816 52.1367 19.522 44.9879 19.522 36.1688C19.5322 27.3541 26.8204 20.2109 35.8141 20.2009Z" fill="#72758E"/>
<path d="M61.1373 57.8405L50.9282 62.5681C49.5187 59.9985 46.8148 58.3631 43.8392 58.2808L34.4147 58.0269C32.9225 57.9852 31.4582 57.6147 30.1314 56.943L29.1724 56.4559C24.2623 53.9473 18.4097 53.9536 13.5047 56.4721L13.5645 54.3428C13.5842 53.6374 13.0172 53.0498 12.2975 53.0305L1.96303 52.7517C1.24331 52.7324 0.644494 53.2881 0.624767 53.9935L0.000499532 76.2208C-0.0192274 76.9262 0.547767 77.5138 1.26749 77.5331L11.6019 77.8119H11.6376C12.3439 77.8119 12.9218 77.2612 12.9408 76.5695L12.9708 75.5061L15.6555 74.0971C16.7094 73.5414 17.9413 73.4092 19.0925 73.7285L35.1249 78.1387C35.1529 78.1468 35.1809 78.153 35.2096 78.1593C36.3684 78.3969 37.5494 78.516 38.7331 78.5154C41.2403 78.5167 43.7183 77.9871 45.9971 76.9618C46.0531 76.9368 46.1072 76.9075 46.1587 76.8745L69.4043 62.1377C69.9833 61.7704 70.1704 61.0251 69.8313 60.4363C68.1055 57.4351 64.2778 56.2918 61.1373 57.8405ZM2.64202 75.0146L3.19438 55.3407L10.9229 55.549L10.3706 75.2235L2.64202 75.0146ZM44.823 74.6803C41.9919 75.9327 38.8298 76.2782 35.7867 75.6689L19.7976 71.2699C17.998 70.7716 16.0717 70.978 14.4255 71.8456L13.0535 72.566L13.4207 59.4851C17.7683 56.6511 23.344 56.3598 27.9742 58.7242L28.9332 59.2113C30.6093 60.0596 32.4579 60.5273 34.3435 60.581L43.7686 60.8348C46.4158 60.9097 48.6641 62.7571 49.2012 65.2993L35.1625 64.9194C34.4427 64.9001 33.8439 65.4564 33.8236 66.1612C33.8038 66.8666 34.3715 67.4541 35.0906 67.4735L50.5833 67.8913H50.6196C51.3253 67.8907 51.9025 67.34 51.9216 66.6489C51.9375 66.0938 51.8955 65.5381 51.7956 64.9918L62.2669 60.1425C62.277 60.1382 62.2872 60.1332 62.2974 60.1282C63.7827 59.3916 65.5785 59.638 66.8003 60.7463L44.823 74.6803Z" fill="#72758E"/>
<path d="M37.1173 14.0549V1.92028C37.1173 1.21487 36.5338 0.642944 35.8141 0.642944C35.0943 0.642944 34.5108 1.21487 34.5108 1.92028V14.0549C34.5108 14.7603 35.0943 15.3323 35.8141 15.3323C36.5338 15.3323 37.1173 14.7603 37.1173 14.0549Z" fill="#72758E"/>
<path d="M46.8918 14.0554V8.30742C46.8918 7.60202 46.3083 7.03009 45.5885 7.03009C44.8688 7.03009 44.2853 7.60202 44.2853 8.30742V14.0554C44.2853 14.7608 44.8688 15.3328 45.5885 15.3328C46.3083 15.3328 46.8918 14.7608 46.8918 14.0554Z" fill="#72758E"/>
<path d="M27.3428 14.0554V8.30742C27.3428 7.60202 26.7592 7.03009 26.0395 7.03009C25.3198 7.03009 24.7363 7.60202 24.7363 8.30742V14.0554C24.7363 14.7608 25.3198 15.3328 26.0395 15.3328C26.7592 15.3328 27.3428 14.7608 27.3428 14.0554Z" fill="#72758E"/>
</svg>
