<svg width="70" height="70" viewBox="0 0 70 70" fill="none" xmlns="http://www.w3.org/2000/svg">
<path d="M14.6198 38.9216C14.9798 38.9216 15.3323 38.7782 15.5866 38.529C15.8408 38.2798 15.9871 37.9338 15.9871 37.5815C15.9871 37.2292 15.8408 36.8832 15.5866 36.634C15.3323 36.3848 14.9798 36.2414 14.6198 36.2414C14.2587 36.2414 13.9073 36.3848 13.6531 36.634C13.3972 36.8832 13.2525 37.2276 13.2525 37.5815C13.2525 37.9338 13.3972 38.2798 13.6531 38.529C13.9073 38.7782 14.2587 38.9216 14.6198 38.9216Z" fill="#72758E"/>
<path d="M27.9128 15.6647C27.6121 15.3699 27.1885 15.2291 26.7671 15.2836C26.3452 15.338 25.9734 15.582 25.7614 15.9432L16.1692 32.2608C15.7922 32.9021 16.017 33.7213 16.6713 34.0909C17.3256 34.4605 18.1615 34.2396 18.5386 33.5988L23.211 25.6502L44.5275 46.5426L17.8907 61.584L7.8643 51.757L13.0292 42.9714C13.4063 42.3301 13.1814 41.5103 12.5271 41.1407C11.8723 40.7711 11.0364 40.992 10.6593 41.6333L5.0618 51.1556L2.78434 53.3882C0.988645 55.1477 0 57.4871 0 59.9758C0 62.4639 0.988645 64.8034 2.78434 66.5634C4.63718 68.3794 7.07114 69.2876 9.5051 69.2876C11.9396 69.2876 14.3735 68.3794 16.2264 66.5634L17.6648 65.1536L20.0239 67.4653C21.4815 68.8945 23.3969 69.6085 25.3117 69.6085C27.227 69.6085 29.1418 68.8945 30.5999 67.4653C33.4291 64.6924 33.513 60.2318 30.8515 57.3584L54.4316 44.0435C54.8001 43.8351 55.0485 43.4708 55.1046 43.0577C55.1601 42.6442 55.0164 42.229 54.7157 41.9343L27.9128 15.6647ZM4.71783 64.6678C3.43916 63.4141 2.73466 61.7478 2.73466 59.9753C2.73466 58.2028 3.43916 56.5365 4.71783 55.2833L6.1562 53.8735L15.7313 63.2581L14.2929 64.6678C11.6533 67.2554 7.35742 67.2554 4.71783 64.6678ZM28.6664 58.9948C30.5161 60.8076 30.5161 63.757 28.6664 65.5698C26.8168 67.3826 23.8071 67.3832 21.9574 65.5698L19.8931 63.5465L28.4058 58.7399L28.6664 58.9948ZM46.9796 45.158C46.9695 45.1475 46.9609 45.137 46.9508 45.1266L24.6253 23.2453L27.2404 18.7962L51.5206 42.5934L46.9796 45.158Z" fill="#72758E"/>
<path d="M34.6479 16.269C34.7697 16.302 34.892 16.3177 35.0122 16.3177C35.612 16.3177 36.1627 15.9277 36.3293 15.3336L38.0091 9.36265L39.1751 10.5054C39.5121 10.8357 40.0003 10.9703 40.4639 10.8603C40.927 10.7504 41.2982 10.4122 41.444 9.96728L43.8096 2.74417C44.0404 2.03956 43.6446 1.28469 42.9257 1.05854C42.2068 0.832391 41.4366 1.2203 41.2058 1.92491L39.525 7.05772L38.2821 5.83956C37.9381 5.50244 37.4371 5.36999 36.966 5.49144C36.4955 5.61342 36.1264 5.97096 35.9971 6.43111L33.6929 14.6206C33.4927 15.3346 33.9199 16.0727 34.6479 16.269Z" fill="#72758E"/>
<path d="M69.8308 22.9792C69.467 22.3306 68.6359 22.094 67.9742 22.4499L58.249 27.6854C57.8719 27.8885 57.6144 28.2533 57.5541 28.6711C57.4932 29.0883 57.6363 29.5097 57.9408 29.8076L60.6162 32.4298L54.1929 34.0034C53.4601 34.1829 53.0146 34.9106 53.1978 35.6288C53.3533 36.2376 53.9109 36.6438 54.5235 36.6438C54.633 36.6438 54.7452 36.6308 54.8563 36.6035L63.6222 34.4557C64.1002 34.3389 64.4768 33.9788 64.6082 33.5134C64.7396 33.048 64.6055 32.5496 64.2573 32.2083L61.1626 29.1752L69.2908 24.7994C69.9525 24.4429 70.1945 23.6283 69.8308 22.9792Z" fill="#72758E"/>
<path d="M63.0166 15.9239C63.2708 16.1746 63.6233 16.317 63.9833 16.317C64.3428 16.317 64.6953 16.1746 64.9501 15.9239C65.2043 15.6747 65.3506 15.3302 65.3506 14.9769C65.3506 14.6241 65.2043 14.2786 64.9501 14.0294C64.6953 13.7797 64.3428 13.6362 63.9833 13.6362C63.6233 13.6362 63.2708 13.7797 63.0166 14.0294C62.7618 14.2786 62.6154 14.6241 62.6154 14.9769C62.6154 15.3302 62.7618 15.6747 63.0166 15.9239Z" fill="#72758E"/>
<path d="M60.2195 16.798C59.8852 16.1342 59.0653 15.862 58.3881 16.1897L53.2835 18.659C52.8883 18.8501 52.6116 19.2166 52.54 19.6427C52.4685 20.0693 52.6105 20.5033 52.9219 20.8085L54.8533 22.7014L48.4226 25.8062C47.7453 26.1334 47.4665 26.937 47.8003 27.6008C48.0385 28.0745 48.5235 28.3488 49.0282 28.3488C49.2307 28.3488 49.4368 28.3048 49.6313 28.2111L57.7744 24.2792C58.1701 24.0881 58.4473 23.7217 58.5195 23.2956C58.591 22.8689 58.4489 22.435 58.137 22.1292L56.2046 20.2353L59.5984 18.5931C60.2756 18.2654 60.5534 17.4618 60.2195 16.798Z" fill="#72758E"/>
<path d="M43.1053 20.5044C43.3253 20.6337 43.5678 20.6955 43.8076 20.6955C44.2718 20.6955 44.7247 20.4636 44.9811 20.0448L50.044 11.7768L52.7007 14.3875C52.9902 14.6717 53.394 14.8141 53.802 14.7754C54.2096 14.7361 54.5781 14.5204 54.8056 14.1865L62.3848 3.07958C62.8046 2.46449 62.6363 1.63214 62.0087 1.22067C61.3806 0.809736 60.5314 0.974635 60.1116 1.58973L53.4597 11.3376L50.7426 8.66679C50.4451 8.37415 50.0258 8.23229 49.6082 8.28307C49.1899 8.33332 48.8187 8.56942 48.6019 8.92382L42.6363 18.6654C42.2475 19.3004 42.4574 20.1233 43.1053 20.5044Z" fill="#72758E"/>
</svg>
