<svg width="27" height="30" viewBox="0 0 27 30" fill="none" xmlns="http://www.w3.org/2000/svg">
<path d="M25.304 19.7812L22.3582 16.8354L21.674 17.5197L24.6198 20.4654C24.9692 20.8149 25.1613 21.2794 25.1613 21.7753C25.1613 22.2693 24.9692 22.7338 24.6198 23.0832L22.5983 25.1047C22.2488 25.4542 21.7732 25.6609 21.2899 25.6462C20.8031 25.6462 20.3268 25.449 19.9824 25.1047L14.0899 19.2123C13.5576 18.68 12.8502 18.3872 12.0958 18.3872C11.3429 18.3872 10.6355 18.68 10.1036 19.2123L9.19355 20.1224L6.86232 17.7911C6.62275 17.5511 6.30426 17.4195 5.96569 17.4195C5.36322 17.4195 4.84013 17.8483 4.72199 18.4385L4.31326 20.482L5.12176 21.2905L0.742818 25.6694C0.263672 26.149 0 26.7858 0 27.4636C0 28.8621 1.13809 30.0001 2.53654 30.0001C3.21391 30.0001 3.85112 29.7365 4.33027 29.2573L8.7092 24.8784L9.5177 25.6869L11.5612 25.2781C12.1518 25.16 12.5806 24.6369 12.5806 24.0344C12.5806 23.6959 12.449 23.3779 12.209 23.1378L9.87777 20.8066L10.7879 19.8965C11.4846 19.1993 12.7059 19.1972 13.4057 19.8965L19.2981 25.789C19.8226 26.3135 20.548 26.614 21.2894 26.614H21.2936C22.0452 26.6135 22.7511 26.3208 23.2825 25.789L25.304 23.7675C25.8363 23.2352 26.129 22.5278 26.129 21.7734C26.129 21.0204 25.8363 20.313 25.304 19.7812ZM2.53654 29.0324C1.67134 29.0324 0.967742 28.3288 0.967742 27.4636C0.967742 27.0447 1.13076 26.6504 1.42704 26.3541L1.45161 26.3295L3.67061 28.5485L3.64604 28.5731C3.34977 28.8694 2.95544 29.0324 2.53654 29.0324ZM4.35484 27.8643L2.13584 25.6453L5.80645 21.9752L8.02498 24.1937L4.35484 27.8643ZM11.6129 24.0344C11.6129 24.1772 11.5113 24.3017 11.3714 24.3291L9.83666 24.636L5.36416 20.1635L5.67107 18.6287C5.71454 18.4113 6.02169 18.3185 6.1781 18.4754L11.5252 23.8225C11.581 23.8783 11.6129 23.9555 11.6129 24.0344Z" fill="black"/>
<path d="M18.871 19.3548C17.8054 19.3548 16.8039 18.9402 16.0509 18.1867L6.49067 8.62651C5.73722 7.87306 5.32257 6.87201 5.32257 5.80645C5.32257 4.7409 5.73722 3.73984 6.49067 2.98639L8.30896 1.16809C9.06194 0.414645 10.0635 0 11.129 0C12.1946 0 13.1956 0.414645 13.9491 1.16809L23.5093 10.7283C24.2628 11.4818 24.6774 12.4828 24.6774 13.5484C24.6774 14.6139 24.2628 15.615 23.5093 16.3684L21.691 18.1867C20.9376 18.9402 19.9365 19.3548 18.871 19.3548Z" fill="#2AADF1"/>
<path d="M16.2758 7.60024L16.96 6.91602L17.9275 7.88352L17.2433 8.56798L16.2758 7.60024Z" fill="black"/>
<path d="M15.3083 6.6325L11.8964 3.22059C11.4872 2.81138 10.7709 2.81138 10.3617 3.22059L10.0196 3.5627L9.33533 2.87872L9.67744 2.53661C10.0649 2.14889 10.5804 1.93555 11.1291 1.93555C11.6777 1.93555 12.1932 2.14889 12.5807 2.53661L15.9923 5.94827L15.3083 6.6325Z" fill="black"/>
</svg>
