<svg width="30" height="30" viewBox="0 0 30 30" fill="none" xmlns="http://www.w3.org/2000/svg">
<path d="M8.85093 10.3755L0 19.2264L10.7736 30L19.6245 21.1491L8.85093 10.3755ZM1.35937 19.2264L8.85093 11.7349L9.61323 12.4972L2.12167 19.9887L1.35937 19.2264ZM4.24334 22.1104L5.34548 21.0082L4.66579 20.3286L3.56365 21.4307L2.80135 20.6684L10.2929 13.1768L11.0552 13.9391L5.62712 19.3672L6.3068 20.0469L11.7349 14.6188L12.4972 15.3811L5.00564 22.8727L4.24334 22.1104ZM5.68532 23.5524L13.1769 16.0608L13.9392 16.8231L6.44762 24.3147L5.68532 23.5524ZM7.12731 24.9944L14.6189 17.5028L15.3812 18.2651L7.88961 25.7567L7.12731 24.9944ZM10.0113 27.8783L15.4394 22.4502L14.7597 21.7705L9.33159 27.1986L8.56929 26.4363L16.0608 18.9448L16.8231 19.7071L15.721 20.8092L16.4007 21.4889L17.5028 20.3868L18.2651 21.1491L10.7736 28.6406L10.0113 27.8783Z" fill="black"/>
<path d="M19.4255 22.3094L7.69058 10.5745L8.79272 9.47236C9.31422 8.95086 10.0362 8.65186 10.7736 8.65186C11.511 8.65186 12.2329 8.95086 12.7544 9.47236L13.954 10.6721C14.2732 10.9913 14.7616 11.1244 15.1955 11.0162L17.1693 10.5231L19.4769 12.8307L18.9838 14.8033C18.9577 14.9073 18.9448 15.0133 18.9448 15.1206C18.9448 15.4651 19.0842 15.8022 19.3278 16.0458L20.5276 17.2456C21.0491 17.7671 21.3481 18.489 21.3481 19.2264C21.3481 19.9638 21.0491 20.6858 20.5276 21.2073L19.4255 22.3094Z" fill="#2AADF1"/>
<path d="M26.8002 0C25.9456 0 25.1425 0.332567 24.5377 0.937384L18.1243 7.35074L18.0689 7.40566L16.4371 10.6691L19.3307 13.5627L22.5944 11.9309L29.0626 5.46213C29.6675 4.85754 30 4.05488 30 3.19987C30 1.43518 28.5649 0 26.8002 0ZM17.607 10.48L18.5963 8.5024L21.4981 11.4042L19.5205 12.3935L17.607 10.48ZM28.383 4.78267L22.3094 10.8557L19.1443 7.69058L25.2174 1.61683C25.6405 1.19391 26.2024 0.961323 26.8002 0.961323C28.0347 0.961323 29.0387 1.96536 29.0387 3.19987C29.0387 3.79765 28.8061 4.35951 28.383 4.78267Z" fill="black"/>
<path d="M26.6354 4.80657C25.8402 4.80657 25.1934 4.15951 25.1934 3.36459C25.1934 2.56967 25.8402 1.92261 26.6354 1.92261C27.4303 1.92261 28.0774 2.56967 28.0774 3.36459C28.0774 4.15951 27.4303 4.80657 26.6354 4.80657Z" fill="#2AADF1"/>
</svg>
