<svg width="70" height="70" viewBox="0 0 70 70" fill="none" xmlns="http://www.w3.org/2000/svg">
<path d="M67.7295 22.8522C67.7318 22.7847 67.7419 22.7183 67.7419 22.6519C67.7419 19.9474 65.7514 17.69 63.131 17.212C62.6432 14.6437 60.34 12.6928 57.5806 12.6928C55.7313 12.6928 54.0502 13.5625 53.0013 15.0121C51.9445 14.803 50.8798 14.9092 49.9145 15.2722C48.8961 13.692 47.1123 12.6928 45.1613 12.6928C42.8897 12.6928 40.8585 14.0472 39.9802 16.0346C39.2903 15.9704 38.6219 16.0446 37.9637 16.2349C36.6845 14.6957 34.7923 13.7993 32.7419 13.7993C31.0055 13.7993 29.426 14.4478 28.2258 15.5035V4.94679C28.2258 2.50569 26.2003 0.520508 23.7097 0.520508C21.219 0.520508 19.1935 2.50569 19.1935 4.94679V42.5702H16.9355C15.0681 42.5702 13.5484 44.0596 13.5484 45.8899V49.2096H5.64516C2.53242 49.2096 0 51.6916 0 54.7424V58.0621H2.25806V69.1278H45.1613V64.7016H58.1102C60.9519 64.7016 63.3602 62.6179 63.7158 59.8238L66.509 31.5045H66.6129C68.4803 31.5045 70 30.015 70 28.1848V25.9716C70 24.5264 69.0471 23.307 67.7295 22.8522ZM32.7419 16.0125C34.3181 16.0125 35.7542 16.8125 36.5863 18.1526L37.1215 19.0135L38.0461 18.572C38.7947 18.2157 39.445 18.0928 40.4363 18.3706L41.6003 18.6948L41.851 17.5351C42.1784 16.0114 43.5716 14.9059 45.1613 14.9059C46.5873 14.9059 47.8653 15.8022 48.3418 17.1368L48.8261 18.4934L50.041 17.6878C50.9216 17.1047 52.0156 16.932 53.1277 17.3448L54.0942 17.7033L54.5435 16.7915C55.116 15.6285 56.2811 14.9059 57.5806 14.9059C59.4481 14.9059 60.9677 16.3954 60.9677 18.2256V19.3322H62.0968C63.9642 19.3322 65.4839 20.8216 65.4839 22.6519H29.3548C28.9574 22.6519 28.5803 22.7316 28.2258 22.8555V20.4388C28.2258 17.9977 30.2513 16.0125 32.7419 16.0125ZM29.4587 31.5045L30.5505 42.5768C30.5279 42.5768 30.5065 42.5702 30.4839 42.5702H28.2258V31.3009C28.5803 31.4248 28.9574 31.5045 29.3548 31.5045H29.4587ZM21.4516 4.94679C21.4516 3.72624 22.4644 2.73365 23.7097 2.73365C24.955 2.73365 25.9677 3.72624 25.9677 4.94679V25.9716V28.1848V42.5702H21.4516V4.94679ZM15.8065 45.8899C15.8065 45.2801 16.3134 44.7833 16.9355 44.7833H30.4839C31.106 44.7833 31.6129 45.2801 31.6129 45.8899V49.2096H15.8065V45.8899ZM2.25806 54.7424C2.25806 52.9122 3.77774 51.4227 5.64516 51.4227H41.7742C43.6416 51.4227 45.1613 52.9122 45.1613 54.7424V55.849H2.25806V54.7424ZM29.3548 60.2753V66.9147H27.0968V58.0621H33.871V66.9147H31.6129V60.2753H29.3548ZM20.3226 60.2753V66.9147H18.0645V58.0621H24.8387V66.9147H22.5806V60.2753H20.3226ZM11.2903 60.2753V66.9147H9.03226V58.0621H15.8065V66.9147H13.5484V60.2753H11.2903ZM4.51613 58.0621H6.77419V66.9147H4.51613V58.0621ZM40.6452 66.9147V60.2753H38.3871V66.9147H36.129V58.0621H42.9032V66.9147H40.6452ZM61.4713 59.5804C61.2602 61.238 59.815 62.4884 58.1102 62.4884H45.1613V58.0621H47.4194V54.7424C47.4194 51.6916 44.8869 49.2096 41.7742 49.2096H33.871V45.8899C33.871 44.998 33.5063 44.1913 32.9203 43.5937L31.7269 31.5045H64.2408L61.4713 59.5804ZM67.7419 28.1848C67.7419 28.7945 67.235 29.2913 66.6129 29.2913H29.3548C28.7327 29.2913 28.2258 28.7945 28.2258 28.1848V25.9716C28.2258 25.3619 28.7327 24.865 29.3548 24.865H66.6129C67.235 24.865 67.7419 25.3619 67.7419 25.9716V28.1848Z" fill="#72758E"/>
</svg>
