<svg width="70" height="70" viewBox="0 0 70 70" fill="none" xmlns="http://www.w3.org/2000/svg">
<path d="M63.4269 37.6255C60.5711 36.1856 58.1005 34.9089 57.2059 32.0977L62.5215 26.8878C62.9587 26.4593 63.2045 25.8781 63.2045 25.2719C63.2045 24.6658 62.9587 24.0846 62.5215 23.656L55.1036 16.3847C54.56 15.8519 53.7831 15.6169 53.0274 15.7557L42.8427 1.49586C42.4472 0.942334 41.8227 0.588206 41.1359 0.529184C40.4491 0.470694 39.7715 0.712097 39.2838 1.19012L26.0512 14.1594C25.3177 14.882 25.1593 15.9928 25.6617 16.885L27.3744 19.9074L24.2913 18.2276C23.3804 17.7363 22.2481 17.8921 21.5098 18.61L18.1689 21.8848C18.0246 22.03 17.9004 22.1938 17.8006 22.3714C12.7286 22.6442 0 23.7469 0 27.9412V32.5114C0.0379764 33.3345 0.470364 34.0911 1.16587 34.5537V63.5742C1.17292 63.6391 1.18595 63.7029 1.20548 63.7656L1.20819 63.781C1.22392 63.8831 1.25376 63.9826 1.29662 64.0761C2.69469 67.9966 15.5426 69.0722 23.3142 69.0722C31.5409 69.0722 45.463 67.8689 45.463 63.3594V43.6069L49.7039 39.4504C52.5717 40.3272 53.8748 42.7481 55.3439 45.5477C56.1111 47.1625 57.0697 48.6827 58.1998 50.0774C59.2262 51.2478 60.7073 51.9401 62.2806 51.9858C62.3522 51.9879 62.4238 51.9895 62.4954 51.9895C64.0568 51.9879 65.5541 51.3807 66.6592 50.2997L68.2765 48.7157C69.4315 47.5805 70.0543 46.0268 69.9963 44.4241C69.9502 42.8821 69.2433 41.4305 68.0497 40.425C66.6262 39.3169 65.0745 38.3774 63.4269 37.6255ZM60.8738 25.2709L42.7391 43.0454L35.3207 35.774L53.4554 18.0006L60.8738 25.2709ZM3.01912 33.042C2.75437 32.9139 2.52 32.732 2.33229 32.5087L2.3312 32.5092V30.7216C2.79126 30.9428 3.26488 31.1353 3.74935 31.299L3.80034 31.3161L3.80414 31.3176C7.92457 32.7804 15.209 33.654 23.3142 33.654C25.6313 33.654 27.9473 33.5711 30.2129 33.4217L33.0312 35.3556C33.0247 35.3885 33.0264 35.4226 33.0215 35.4561C29.7962 35.7799 26.5563 35.941 23.3142 35.9389C14.2775 35.9389 5.93786 34.7505 3.01912 33.042ZM23.9001 29.0903L27.1145 31.2953C25.8532 31.3421 24.5842 31.3687 23.3142 31.3687C18.4467 31.4102 13.5847 31.0279 8.78554 30.226C13.5847 29.4247 18.4467 29.0424 23.3142 29.0839C23.5133 29.0871 23.7059 29.0887 23.8996 29.0903H23.9001ZM23.1585 20.2253L29.8087 23.8464C30.2638 24.0947 30.8313 24.0165 31.1997 23.656C31.5675 23.295 31.6473 22.7383 31.3939 22.2927L27.6999 15.7748L32.7697 10.8058L40.1952 19.5394C40.4583 19.8638 40.8804 20.0227 41.297 19.9552C41.7142 19.8877 42.0615 19.6043 42.2041 19.2145C42.3474 18.8248 42.2638 18.3893 41.986 18.0772L34.425 9.18354L40.9325 2.8055L51.1145 17.0626L34.3631 33.4807L19.8171 23.5008L23.1585 20.2253ZM17.812 24.6636C17.9807 24.9439 18.2085 25.1858 18.4803 25.373L20.6097 26.8331C13.8358 26.999 7.86652 27.7849 4.17468 29.0116C3.48677 28.81 2.85582 28.4554 2.3312 27.9747V27.9688C2.68655 27.0585 7.57247 25.2124 17.812 24.6636ZM23.3142 66.7874C10.9741 66.7874 3.86653 64.551 3.49707 63.3466V35.7735C7.51714 37.2841 14.9328 38.2237 23.3142 38.2237C26.8666 38.2285 30.4158 38.0402 33.9465 37.659L41.0903 44.6608C41.5265 45.0909 42.12 45.3318 42.7391 45.3302C42.8709 45.3286 43.0022 45.3158 43.1318 45.2924V63.344C42.7738 64.5478 35.6657 66.7874 23.3142 66.7874ZM66.6278 47.1003L65.0111 48.6848C64.3107 49.367 63.3537 49.735 62.3668 49.702C61.4418 49.6776 60.57 49.2724 59.9651 48.5859C58.9576 47.3258 58.1026 45.9555 57.4169 44.5023C56.0671 41.9298 54.566 39.0691 51.5224 37.668L55.3868 33.88C56.8163 36.8635 59.7345 38.3343 62.3598 39.6578C63.8425 40.3299 65.2406 41.1679 66.5263 42.1553C67.2267 42.7481 67.6401 43.6021 67.6656 44.5087C67.7003 45.4764 67.3249 46.4144 66.6278 47.1003Z" fill="#72758E"/>
</svg>
