<svg width="70" height="74" viewBox="0 0 70 74" fill="none" xmlns="http://www.w3.org/2000/svg">
<path d="M66.6933 12.6721C66.5378 12.5205 66.3443 12.4116 66.1323 12.3564C65.9204 12.3012 65.6973 12.3016 65.4856 12.3574C65.2738 12.4133 65.0807 12.5228 64.9257 12.6749C64.7707 12.827 64.6592 13.0163 64.6024 13.2239L62.8856 19.5042L58.7727 20.3284L55.6332 17.5997L57.3462 11.323C57.4029 11.1154 57.4028 10.8969 57.3461 10.6892C57.2895 10.4816 57.1781 10.2923 57.0233 10.1401C56.8684 9.98798 56.6755 9.87838 56.4638 9.82232C56.2521 9.76626 56.0291 9.76571 55.8171 9.82071C53.9686 10.3042 52.2766 11.2418 50.901 12.545C49.5254 13.8482 48.5117 15.4739 47.956 17.2681C47.4003 19.0624 47.3208 20.966 47.7251 22.7987C48.1294 24.6315 49.0041 26.3329 50.2665 27.7419L45.1337 46.5203C44.4151 46.1524 43.6653 45.8463 42.8927 45.6054L32.5333 42.4303V38.1735C34.793 37.0445 36.6902 35.3252 38.0152 33.2054C39.3401 31.0857 40.0412 28.6482 40.041 26.1623V24.9359C40.8778 24.9386 41.6913 24.6663 42.3515 24.1625C43.0118 23.6588 43.4807 22.9526 43.6833 22.1569C43.8859 21.3612 43.8105 20.5219 43.4692 19.7731C43.1278 19.0244 42.5402 18.4094 41.8003 18.0264C41.8727 17.9246 41.9387 17.8185 41.998 17.7088L42.1231 17.4562C42.3614 16.9929 42.4964 16.4851 42.5191 15.9668C42.5418 15.4484 42.4517 14.9312 42.2547 14.4496C42.0578 13.968 41.7585 13.533 41.3769 13.1734C40.9952 12.8139 40.5398 12.538 40.041 12.3642V6.09863C40.0371 5.2491 39.7348 4.4268 39.1849 3.77012C38.635 3.11344 37.8711 2.66246 37.0217 2.49306L28.4779 0.809237C27.0202 0.534535 25.5224 0.534535 24.0647 0.809237L15.531 2.49306C14.6818 2.6627 13.9182 3.11379 13.3685 3.77045C12.8188 4.42711 12.5167 5.24927 12.5129 6.09863V12.3642C12.0139 12.5377 11.5583 12.8132 11.1763 13.1725C10.7944 13.5318 10.4948 13.9666 10.2975 14.4481C10.1002 14.9296 10.0097 15.4468 10.032 15.9652C10.0544 16.4836 10.189 16.9915 10.427 17.455L10.5521 17.7002C10.6108 17.8111 10.6756 17.9187 10.7461 18.0228C10.0035 18.405 9.41359 19.0207 9.07094 19.771C8.72828 20.5213 8.65279 21.3627 8.85658 22.1601C9.06038 22.9575 9.53163 23.6646 10.1947 24.168C10.8578 24.6714 11.6742 24.9419 12.5129 24.9359V26.1623C12.5156 28.6463 13.2181 31.0813 14.5428 33.1989C15.8675 35.3166 17.7631 37.0346 20.0205 38.1637V42.4303L9.66371 45.6054C6.85779 46.4521 4.40383 48.1603 2.66386 50.4779C0.923881 52.7956 -0.00996728 55.6001 8.02356e-05 58.4775V72.7649C8.02356e-05 73.0902 0.131911 73.4021 0.366572 73.6321C0.601232 73.8621 0.9195 73.9913 1.25136 73.9913H51.3025C51.6344 73.9913 51.9527 73.8621 52.1873 73.6321C52.422 73.4021 52.5538 73.0902 52.5538 72.7649V70.3121H50.0513V71.5385H43.7949V67.8594H41.2923V71.5385H11.2616V58.0483H8.75903V71.5385H2.50264V58.4775C2.49412 56.1235 3.25798 53.8292 4.68146 51.9333C6.10495 50.0373 8.11264 48.64 10.4082 47.9478L13.7642 46.9188V54.3691C13.7661 55.9948 14.4259 57.5534 15.5988 58.7029C16.7717 59.8524 18.3619 60.4991 20.0205 60.5011H32.5333C33.3961 60.4993 34.2491 60.3215 35.038 59.9791C35.8269 59.6366 36.5344 59.1369 37.1155 58.5119C37.15 61.3921 38.335 64.1444 40.4164 66.178C40.5719 66.3296 40.7654 66.4384 40.9773 66.4936C41.1893 66.5489 41.4123 66.5485 41.6241 66.4926C41.8359 66.4367 42.0289 66.3272 42.184 66.1751C42.339 66.0231 42.4505 65.8337 42.5073 65.6261L44.224 59.3458L48.3358 58.5204L51.4765 61.2491L49.7597 67.5295C49.71 67.7112 49.7036 67.9017 49.741 68.0862C49.7785 68.2708 49.8587 68.4444 49.9756 68.5936C50.0924 68.7429 50.2427 68.8638 50.4149 68.947C50.5871 69.0302 50.7765 69.0735 50.9684 69.0735C51.0761 69.0732 51.1833 69.0596 51.2875 69.033C53.1364 68.5502 54.829 67.6128 56.2051 66.3096C57.5811 65.0065 58.595 63.3807 59.1508 61.5862C59.7066 59.7917 59.7859 57.8879 59.3812 56.0549C58.9765 54.222 58.1012 52.5206 56.8382 51.1119L62.3588 30.917C64.1719 30.3159 65.7985 29.2711 67.0844 27.8816C68.3703 26.4921 69.273 24.8039 69.7071 22.9769C70.1411 21.1498 70.0921 19.2444 69.5647 17.4411C69.0373 15.6378 68.049 13.9963 66.6933 12.6721ZM43.4558 48.4592C41.5297 49.3845 39.9116 50.8272 38.7897 52.6191V46.9188L42.1444 47.9478C42.592 48.0911 43.03 48.2619 43.4558 48.4592ZM32.6072 45.0253L31.6412 49.964L28.2953 48.0017L31.6312 44.7322L32.6072 45.0253ZM14.1395 17.2685C13.8727 17.316 13.5974 17.2772 13.355 17.1579C13.1126 17.0387 12.9163 16.8456 12.7957 16.6075L12.6705 16.3622C12.5823 16.1894 12.5369 15.9985 12.5383 15.8052C12.5396 15.6118 12.5876 15.4216 12.6782 15.2499C12.7688 15.0782 12.8996 14.9299 13.0599 14.8172C13.2201 14.7044 13.4053 14.6304 13.6002 14.6012L24.5715 12.948C25.7059 12.7763 26.8605 12.7763 27.995 12.948L38.9662 14.6012C39.1609 14.6304 39.3459 14.7042 39.506 14.8167C39.6661 14.9293 39.7968 15.0772 39.8876 15.2486C39.9783 15.42 40.0265 15.61 40.0281 15.8031C40.0298 15.9962 39.9849 16.1869 39.8971 16.3598L39.772 16.6124C39.651 16.8498 39.4547 17.0423 39.2127 17.161C38.9706 17.2797 38.6957 17.3183 38.4294 17.271L28.3015 15.4645C26.9703 15.2266 25.6061 15.2266 24.2749 15.4645L14.1395 17.2685ZM40.041 22.4831V20.0304C40.3729 20.0304 40.6911 20.1596 40.9258 20.3896C41.1605 20.6196 41.2923 20.9315 41.2923 21.2567C41.2923 21.582 41.1605 21.8939 40.9258 22.1239C40.6911 22.3539 40.3729 22.4831 40.041 22.4831ZM37.5385 6.09863V11.9031L34.3164 11.4126L35.6803 4.72508L36.5262 4.89187C36.811 4.94785 37.0673 5.09853 37.2517 5.31844C37.4362 5.53834 37.5375 5.81395 37.5385 6.09863ZM24.5477 3.21908C25.6863 3.00386 26.8563 3.00386 27.995 3.21908L33.2278 4.24925L31.8401 11.0471L28.3703 10.5234C26.983 10.3125 25.5709 10.3125 24.1836 10.5234L20.7138 11.0471L19.3261 4.24679L24.5477 3.21908ZM16.0265 4.89678L16.8736 4.72999L18.2375 11.4175L15.0154 11.908V6.09863C15.0175 5.81497 15.1191 5.54065 15.3032 5.32177C15.4874 5.1029 15.7427 4.95283 16.0265 4.89678ZM11.2616 21.2567C11.2616 20.9315 11.3934 20.6196 11.6281 20.3896C11.8627 20.1596 12.181 20.0304 12.5129 20.0304V22.4831C12.181 22.4831 11.8627 22.3539 11.6281 22.1239C11.3934 21.8939 11.2616 21.582 11.2616 21.2567ZM15.0154 26.1623V19.6036L24.7103 17.8768C25.7446 17.6922 26.8043 17.6922 27.8385 17.8768L37.5385 19.6036V26.1623C37.5385 29.0896 36.352 31.897 34.24 33.9669C32.1281 36.0369 29.2637 37.1997 26.2769 37.1997C23.2902 37.1997 20.4258 36.0369 18.3139 33.9669C16.2019 31.897 15.0154 29.0896 15.0154 26.1623ZM26.2769 39.6525C27.5465 39.6503 28.8097 39.4766 30.0308 39.1362V42.8239L26.2769 46.5031L22.5231 42.8239V39.1301C23.7437 39.4736 25.007 39.6495 26.2769 39.6525ZM20.9227 44.7236L24.2586 47.9919L20.9127 49.9541L19.9467 45.0155L20.9227 44.7236ZM32.5333 58.0483H20.0205C19.025 58.0483 18.0702 57.6607 17.3662 56.9707C16.6622 56.2807 16.2667 55.3449 16.2667 54.3691V46.1524L17.5418 45.7611L18.793 52.1481C18.8307 52.3426 18.9159 52.5252 19.0412 52.6803C19.1665 52.8355 19.3283 52.9587 19.5127 53.0393C19.6971 53.1199 19.8986 53.1556 20.1002 53.1433C20.3017 53.131 20.4972 53.071 20.67 52.9686L26.2769 49.6672L31.8889 52.9674C32.0617 53.0698 32.2572 53.1297 32.4587 53.142C32.6603 53.1543 32.8618 53.1187 33.0462 53.0381C33.2306 52.9575 33.3924 52.8343 33.5177 52.6791C33.643 52.5239 33.7282 52.3413 33.7659 52.1469L35.0171 45.7599L36.2872 46.1524V54.3691C36.2872 55.3449 35.8917 56.2807 35.1877 56.9707C34.4837 57.6607 33.5289 58.0483 32.5333 58.0483ZM67.1938 22.6953C66.7926 24.1484 66.0097 25.473 64.9231 26.5369C63.8365 27.6008 62.4842 28.3668 61.0012 28.7585C60.7893 28.8145 60.5961 28.924 60.4411 29.0762C60.286 29.2284 60.1745 29.4178 60.1178 29.6256L54.2368 51.1327C54.18 51.3404 54.18 51.5591 54.2366 51.7668C54.2933 51.9745 54.4047 52.1639 54.5596 52.3162C55.5047 53.2405 56.2213 54.3647 56.6545 55.6025C57.0877 56.8404 57.226 58.1589 57.0589 59.4573C56.8917 60.7556 56.4235 61.9991 55.6901 63.0927C54.9567 64.1862 53.9776 65.1006 52.8278 65.7659L54.0891 61.1523C54.1496 60.9325 54.1466 60.7007 54.0803 60.4826C54.014 60.2645 53.8871 60.0687 53.7137 59.9173L49.5257 56.2786C49.297 56.0797 49.0019 55.9698 48.6961 55.9696C48.6121 55.97 48.5283 55.9782 48.4459 55.9941L42.964 57.0978C42.7366 57.1435 42.5266 57.2503 42.3576 57.4062C42.1885 57.5621 42.0671 57.7611 42.0068 57.9808L40.7467 62.5945C40.0903 61.4551 39.7088 60.1834 39.6314 58.8771C39.554 57.5708 39.7828 56.2644 40.3003 55.0582C40.8178 53.852 41.6101 52.7779 42.6167 51.9182C43.6233 51.0586 44.8173 50.4362 46.1072 50.0989C46.3191 50.0429 46.5123 49.9334 46.6673 49.7812C46.8224 49.629 46.9339 49.4396 46.9906 49.2318L52.8716 27.7235C52.9284 27.5158 52.9284 27.2971 52.8718 27.0894C52.8151 26.8817 52.7037 26.6922 52.5488 26.54C51.604 25.6154 50.8877 24.4912 50.4547 23.2533C50.0218 22.0155 49.8836 20.6969 50.0509 19.3987C50.2182 18.1005 50.6864 16.857 51.4198 15.7635C52.1532 14.67 53.1322 13.7556 54.2818 13.0903L53.0118 17.7002C52.9515 17.9198 52.9547 18.1514 53.021 18.3693C53.0873 18.5871 53.2141 18.7826 53.3872 18.934L57.5739 22.5727C57.7191 22.6989 57.8922 22.7903 58.0796 22.8397C58.2671 22.8891 58.4636 22.8951 58.6538 22.8572L64.1369 21.7534C64.3645 21.7077 64.5746 21.6007 64.7436 21.4445C64.9127 21.2884 65.034 21.0892 65.0941 20.8692L66.3554 16.2568C67.4848 18.2124 67.7859 20.5244 67.1938 22.6953Z" fill="#72758E"/>
</svg>
