<svg width="70" height="70" viewBox="0 0 70 70" fill="none" xmlns="http://www.w3.org/2000/svg">
<path d="M69.293 26.9357L53.6667 20.3722V7.40431C53.6666 7.10107 53.5436 6.81028 53.3248 6.59589L47.4915 0.878612C47.2728 0.664157 46.9761 0.543644 46.6667 0.543579H3.5C2.57174 0.543579 1.6815 0.904992 1.02513 1.54831C0.368749 2.19163 0 3.06416 0 3.97395V65.7205C0 66.6303 0.368749 67.5029 1.02513 68.1462C1.6815 68.7895 2.57174 69.1509 3.5 69.1509H50.1667C51.0949 69.1509 51.9852 68.7895 52.6415 68.1462C53.2979 67.5029 53.6667 66.6303 53.6667 65.7205V62.8779L59.7403 58.6311C62.9115 56.4065 65.4962 53.4733 67.2804 50.0746C69.0646 46.6758 69.9968 42.9094 70 39.0872V27.9865C70 27.7628 69.933 27.5439 69.8073 27.3572C69.6816 27.1704 69.5028 27.0238 69.293 26.9357ZM51.3333 7.8777V8.54777H45.5V2.83049H46.1837L51.3333 7.8777ZM50.1667 66.864H3.5C3.19058 66.864 2.89383 66.7435 2.67504 66.5291C2.45625 66.3146 2.33333 66.0238 2.33333 65.7205V3.97395C2.33333 3.67068 2.45625 3.37984 2.67504 3.1654C2.89383 2.95096 3.19058 2.83049 3.5 2.83049H43.1667V9.69122C43.1667 9.99449 43.2896 10.2853 43.5084 10.4998C43.7272 10.7142 44.0239 10.8347 44.3333 10.8347H51.3333V20.3722L35.707 26.9357C35.4972 27.0238 35.3184 27.1704 35.1927 27.3572C35.067 27.5439 35 27.7628 35 27.9865V39.0872C35.0031 42.9094 35.9354 46.6758 37.7196 50.0746C39.5038 53.4733 42.0885 56.4065 45.2597 58.6311L51.3333 62.8779V65.7205C51.3333 66.0238 51.2104 66.3146 50.9916 66.5291C50.7728 66.7435 50.4761 66.864 50.1667 66.864ZM67.6667 39.0872C67.6632 42.5447 66.8195 45.9516 65.2054 49.026C63.5912 52.1003 61.2531 54.7536 58.3847 56.7661L52.5 60.8849L46.6153 56.7684C43.7465 54.7557 41.4082 52.102 39.7941 49.0273C38.18 45.9525 37.3364 42.5451 37.3333 39.0872V28.74L52.5 22.3699L67.6667 28.74V39.0872Z" fill="#72758E"/>
<path d="M52.066 25.781L40.3993 30.3549C40.1829 30.4399 39.9974 30.5865 39.8668 30.7759C39.7362 30.9652 39.6665 31.1886 39.6667 31.4171V38.6323C39.6597 41.5487 40.3257 44.4289 41.6146 47.0575C42.9036 49.6861 44.7822 51.995 47.11 53.8117L51.7708 57.4707C51.9778 57.6331 52.2349 57.7216 52.5 57.7216C52.7651 57.7216 53.0222 57.6331 53.2292 57.4707L57.89 53.8117C60.2178 51.995 62.0964 49.6861 63.3854 47.0575C64.6743 44.4289 65.3402 41.5487 65.3333 38.6323V31.4171C65.3335 31.1886 65.2638 30.9652 65.1332 30.7759C65.0026 30.5865 64.8171 30.4399 64.6007 30.3549L52.934 25.781C52.6553 25.6724 52.3447 25.6724 52.066 25.781ZM63 32.1912V38.6323C63.0063 41.2054 62.4189 43.7466 61.2816 46.0657C60.1444 48.3848 58.4868 50.4219 56.4328 52.0245L52.5 55.1095L48.5672 52.0222C46.5135 50.4198 44.8561 48.3832 43.7189 46.0644C42.5816 43.7457 41.994 41.205 42 38.6323V32.1912L52.5 28.0748L63 32.1912Z" fill="#72758E"/>
<path d="M5.83334 21.1258H38.5C38.8094 21.1258 39.1062 21.0053 39.325 20.7909C39.5438 20.5765 39.6667 20.2856 39.6667 19.9824V6.26089C39.6667 5.95762 39.5438 5.66678 39.325 5.45234C39.1062 5.2379 38.8094 5.11743 38.5 5.11743H5.83334C5.52392 5.11743 5.22717 5.2379 5.00838 5.45234C4.78959 5.66678 4.66667 5.95762 4.66667 6.26089V19.9824C4.66667 20.2856 4.78959 20.5765 5.00838 20.7909C5.22717 21.0053 5.52392 21.1258 5.83334 21.1258ZM7.00001 7.40434H37.3333V18.8389H7.00001V7.40434Z" fill="#72758E"/>
<path d="M31.5 48.5686H5.83334C5.52392 48.5686 5.22717 48.6891 5.00838 48.9035C4.78959 49.118 4.66667 49.4088 4.66667 49.7121V63.4335C4.66667 63.7368 4.78959 64.0276 5.00838 64.2421C5.22717 64.4565 5.52392 64.577 5.83334 64.577H31.5C31.8094 64.577 32.1062 64.4565 32.325 64.2421C32.5438 64.0276 32.6667 63.7368 32.6667 63.4335V49.7121C32.6667 49.4088 32.5438 49.118 32.325 48.9035C32.1062 48.6891 31.8094 48.5686 31.5 48.5686ZM30.3333 62.2901H7.00001V50.8555H30.3333V62.2901Z" fill="#72758E"/>
<path d="M4.66667 26.843H32.6667V29.1299H4.66667V26.843Z" fill="#72758E"/>
<path d="M4.66667 33.7037H32.6667V35.9906H4.66667V33.7037Z" fill="#72758E"/>
<path d="M4.66667 40.5645H32.6667V42.8514H4.66667V40.5645Z" fill="#72758E"/>
</svg>
